<svg width="103" height="89" viewBox="0 0 103 89" fill="none" xmlns="http://www.w3.org/2000/svg">
<path d="M81.1016 88.8779C77.8899 88.9599 73.9696 88.944 70.0515 88.9668C66.9206 88.985 63.7785 88.8415 60.6454 88.9121C57.1781 88.9896 53.7041 88.9873 50.248 88.9645C45.4328 88.9326 40.6109 88.8301 35.7957 88.9212C31.586 89.0009 27.3786 88.8757 23.1689 88.9691C19.0333 89.0624 14.8909 88.9189 10.7508 88.8734C9.50832 88.8597 9.25265 88.6114 9.24816 87.3177C9.23471 83.7507 9.22798 80.1837 9.25713 76.6144C9.26611 75.5849 9.03734 74.6692 8.45199 73.8333C5.70461 69.9178 3.46858 65.7199 2.10275 61.1096C0.98361 57.3399 -0.0413288 53.5383 0.00128353 49.5295C0.0349249 46.4568 -0.122068 43.359 0.530574 40.3478C1.08902 37.7648 1.73045 35.1909 2.64773 32.6945C3.66819 29.9179 4.85461 27.2119 6.43575 24.745C8.13576 22.0914 9.85146 19.4401 12.0763 17.1464C14.3078 14.8459 16.5954 12.6455 19.1544 10.7231C22.5903 8.1401 26.2976 6.08783 30.2067 4.32484C34.311 2.47301 38.5924 1.37284 42.9882 0.698625C47.4221 0.0152937 51.874 -0.203372 56.3752 0.206626C61.3586 0.659903 66.1917 1.7054 70.8589 3.46612C78.6435 6.40216 85.4144 10.9509 91.028 17.1783C95.2758 21.891 98.4336 27.2734 100.571 33.3186C102.43 38.5802 103.186 43.9603 102.962 49.4999C102.78 53.9871 101.863 58.3171 100.291 62.5469C99.2589 65.3281 97.9761 67.9589 96.5968 70.551C95.9979 71.6785 95.2533 72.7399 94.4751 73.749C93.9548 74.4255 93.7507 75.1157 93.7552 75.9493C93.7754 79.2521 93.7664 82.5526 93.7664 85.8553C93.7664 86.2722 93.7776 86.6913 93.744 87.1058C93.6206 88.6365 93.3784 88.8711 91.8982 88.8734C88.5341 88.8802 85.1722 88.8734 81.1016 88.8734V88.8779Z" fill="url(#paint0_linear_77_4)"/>
<defs>
<linearGradient id="paint0_linear_77_4" x1="51.5" y1="0" x2="51.5" y2="89" gradientUnits="userSpaceOnUse">
<stop stop-color="#FCAE16"/>
<stop offset="1" stop-color="#E0990F"/>
</linearGradient>
</defs>
</svg>
