<svg width="111" height="97" viewBox="0 0 111 97" fill="none" xmlns="http://www.w3.org/2000/svg">
<path d="M56.3015 0.0128966C65.703 0.174064 74.4144 2.08678 82.4693 6.49606C86.3113 8.60036 90.0895 10.8537 93.1139 14.1226C95.8708 17.1027 98.193 20.4172 100.187 23.9416C103.138 29.1537 105.497 34.6425 107.348 40.3411C108.798 44.8082 109.677 49.3908 110.16 54.0738C110.564 57.9843 110.962 61.8919 110.999 65.8177C111.023 68.3568 110.686 70.9142 109.47 73.1857C107.956 76.0137 105.257 76.8622 102.254 77.0963C98.9073 77.3548 95.5699 77.7045 92.2233 77.963C90.4543 78.0998 88.6761 78.0451 86.898 78.2032C83.9648 78.4617 81.0103 78.4586 78.0771 78.7201C72.9615 79.1763 67.9279 80.1311 62.9248 81.3049C57.49 82.5821 52.2528 84.4066 47.2527 86.8423C44.3347 88.2624 41.5504 89.9623 38.7601 91.6287C35.3284 93.6752 31.5806 94.7304 27.7112 95.5332C23.0728 96.4941 18.3858 96.9502 13.6623 96.9989C12.5042 97.0111 11.3218 96.9198 10.1516 96.8925C9.56493 96.8803 9.25794 96.5701 9.05125 96.0775C5.36727 87.3471 2.40064 78.3856 0.862615 69.0167C0.38844 66.1217 0.17263 63.1782 0.0540862 60.2224C-0.231634 53.0642 0.622488 46.0428 2.43104 39.1582C3.92955 33.4535 5.65299 27.764 9.01781 22.8226C11.9966 18.4437 15.8447 14.8494 20.0788 11.6777C27.2249 6.32577 35.2403 2.93823 43.97 1.27182C46.9609 0.700137 49.9822 0.164941 53.0705 0.225759C54.2316 0.250086 55.3927 -0.0813708 56.3046 0.0189784L56.3015 0.0128966Z" fill="url(#paint0_linear_73_312)"/>
<defs>
<linearGradient id="paint0_linear_73_312" x1="55.5" y1="0" x2="55.5" y2="97" gradientUnits="userSpaceOnUse">
<stop stop-color="#2A83D6"/>
<stop offset="1" stop-color="#0A5FAF"/>
</linearGradient>
</defs>
</svg>
