<svg width="111" height="93" viewBox="0 0 111 93" fill="none" xmlns="http://www.w3.org/2000/svg">
<path d="M54.1379 0.000592892C50.3924 0.019506 46.6792 0.361662 42.9984 1.07807C39.0619 1.84376 35.249 3.01408 31.5658 4.61081C26.9834 6.59726 22.7506 9.17575 18.8709 12.3463C17.0401 13.8427 15.3067 15.4475 13.6923 17.1783C10.7453 20.3385 8.19822 23.799 6.08862 27.5885C4.61083 30.2433 3.38462 33.0103 2.4083 35.8891C1.48297 38.6189 0.821143 41.4152 0.421096 44.2751C0.0771456 46.7349 -0.0605477 49.2057 0.0244481 51.6862C0.0884783 53.5608 0.273199 55.4275 0.551986 57.2833C1.11069 61.0029 2.01392 64.6376 3.14663 68.2179C4.29634 71.8516 5.67554 75.394 7.20376 78.8798C8.25488 81.2766 9.37116 83.6419 10.5566 85.9734C11.3334 87.5019 12.1426 89.0132 12.9376 90.5326C12.9642 90.583 12.9942 90.6317 13.0231 90.681C13.2373 91.0449 13.2356 91.0404 13.6039 90.8558C15.0086 90.1514 16.5046 89.7164 18.022 89.3508C19.9662 88.882 21.9364 88.5622 23.9208 88.3369C25.1152 88.2011 26.3142 88.1071 27.5161 88.04C30.2597 87.8876 33.0057 87.8933 35.7516 87.8933C47.1365 87.8945 58.5214 87.887 69.9063 87.8985C73.011 87.9019 76.0957 88.1753 79.1528 88.7461C81.5513 89.1937 83.9148 89.7772 86.2239 90.5744C87.9952 91.1865 89.7234 91.9023 91.3463 92.8583C91.6993 93.0663 91.7299 93.0543 91.9888 92.762C92.8014 91.8456 93.6276 90.9418 94.4192 90.0053C96.0216 88.1094 97.5351 86.1453 98.9698 84.1176C100.628 81.7741 102.158 79.3475 103.56 76.8389C105.838 72.7611 107.746 68.5171 109.117 64.0364C109.856 61.6236 110.411 59.1672 110.721 56.6597C110.934 54.9392 111.046 53.2089 110.982 51.4741C110.838 47.5637 110.25 43.7254 109.138 39.9721C108.019 36.1934 106.459 32.612 104.497 29.2048C102.803 26.2623 100.839 23.5159 98.648 20.934C97.2818 19.3235 95.8216 17.8019 94.2883 16.3564C91.7871 13.9992 89.1046 11.8683 86.2454 9.97125C82.2625 7.32914 78.0382 5.17133 73.5595 3.52302C69.9284 2.18706 66.2051 1.21791 62.387 0.628165C61.0027 0.414389 59.6099 0.259645 58.2115 0.160495C56.8555 0.0642098 55.4995 -0.0102965 54.1396 0.00116602L54.1379 0.000592892Z" fill="url(#paint0_linear_73_284)"/>
<defs>
<linearGradient id="paint0_linear_73_284" x1="55.5" y1="0" x2="55.5" y2="93" gradientUnits="userSpaceOnUse">
<stop stop-color="#65C8D0"/>
<stop offset="1" stop-color="#4CB2BA"/>
</linearGradient>
</defs>
</svg>
