<svg width="109" height="90" viewBox="0 0 109 90" fill="none" xmlns="http://www.w3.org/2000/svg">
<path d="M54.8948 0.0252431C67.7774 0.0823337 79.1492 4.28353 89.0171 12.3467C97.4665 19.2514 103.352 27.8956 106.589 38.2491C108.076 43.0011 108.961 47.8773 108.999 52.8274C109.043 58.6641 107.608 64.2724 105.496 69.7128C104.091 73.3263 102.375 76.792 100.372 80.1167C99.9856 80.7581 99.8284 81.4096 99.8352 82.1451C99.8592 84.0325 99.8592 85.9232 99.8352 87.8105C99.8181 88.9926 99.4661 89.2109 98.3279 88.9053C90.4732 86.8097 82.5263 86.1616 74.3948 86.9306C69.6676 87.3773 64.9781 87.9348 60.4184 89.1605C57.1166 90.0505 53.8216 90.3527 50.5813 89.4729C46.5411 88.3781 42.4429 87.5922 38.3071 87.1657C33.1014 86.6317 27.8855 86.2556 22.6114 86.9273C18.8003 87.4109 15.0131 87.8441 11.3251 88.9255C10.4535 89.1807 10.0125 88.9187 10.0228 87.9885C10.0365 86.5612 9.93734 85.1272 10.0467 83.7101C10.18 81.994 9.63997 80.5768 8.74786 79.1159C4.77952 72.6378 1.78873 65.7668 0.452275 58.2678C-0.186898 54.6778 -0.104865 51.0744 0.424931 47.4944C1.18715 42.3361 2.45867 37.3088 4.67356 32.53C8.57354 24.1141 14.2099 17.0685 21.651 11.4199C29.3416 5.58318 37.9926 1.91259 47.6076 0.47861C50.0139 0.119275 52.4407 -0.0721468 54.8948 0.0252431Z" fill="url(#paint0_linear_77_2)"/>
<defs>
<linearGradient id="paint0_linear_77_2" x1="54.5" y1="0" x2="54.5" y2="90" gradientUnits="userSpaceOnUse">
<stop stop-color="#03C457"/>
<stop offset="1" stop-color="#009A43"/>
</linearGradient>
</defs>
</svg>
