<svg width="32" height="30" viewBox="0 0 32 30" fill="none" xmlns="http://www.w3.org/2000/svg">
<path d="M9 28C9.55228 28 10 27.5523 10 27C10 26.4477 9.55228 26 9 26C8.44772 26 8 26.4477 8 27C8 27.5523 8.44772 28 9 28Z" stroke="#010101" stroke-width="2" stroke-linecap="round" stroke-linejoin="round"/>
<path d="M20 28C20.5523 28 21 27.5523 21 27C21 26.4477 20.5523 26 20 26C19.4477 26 19 26.4477 19 27C19 27.5523 19.4477 28 20 28Z" stroke="#010101" stroke-width="2" stroke-linecap="round" stroke-linejoin="round"/>
<path d="M1 7H5L7.68 20.39C7.77144 20.8504 8.02191 21.264 8.38755 21.5583C8.75318 21.8526 9.2107 22.009 9.68 22H19.4C19.8693 22.009 20.3268 21.8526 20.6925 21.5583C21.0581 21.264 21.3086 20.8504 21.4 20.39L23 12H6" stroke="#010101" stroke-width="2" stroke-linecap="round" stroke-linejoin="round"/>
<circle cx="25" cy="7" r="7" fill="#CB2026"/>
<path d="M24.9084 10.1087C24.4034 10.1065 23.9719 9.97337 23.614 9.70916C23.256 9.44496 22.9822 9.06037 22.7926 8.5554C22.603 8.05043 22.5082 7.44212 22.5082 6.73047C22.5082 6.02095 22.603 5.41477 22.7926 4.91193C22.9844 4.40909 23.2592 4.02557 23.6172 3.76136C23.9773 3.49716 24.4077 3.36506 24.9084 3.36506C25.4091 3.36506 25.8384 3.49822 26.1964 3.76456C26.5543 4.02876 26.8281 4.41229 27.0178 4.91513C27.2095 5.41584 27.3054 6.02095 27.3054 6.73047C27.3054 7.44425 27.2106 8.05362 27.021 8.55859C26.8313 9.06143 26.5575 9.44602 26.1996 9.71236C25.8416 9.97656 25.4112 10.1087 24.9084 10.1087ZM24.9084 9.25533C25.3516 9.25533 25.6978 9.03906 25.9471 8.60653C26.1985 8.17401 26.3242 7.54865 26.3242 6.73047C26.3242 6.18714 26.2667 5.72798 26.1516 5.35298C26.0387 4.97585 25.8757 4.69034 25.6626 4.49645C25.4517 4.30043 25.2003 4.20241 24.9084 4.20241C24.4673 4.20241 24.1211 4.41974 23.8697 4.8544C23.6183 5.28906 23.4915 5.91442 23.4893 6.73047C23.4893 7.27592 23.5458 7.73722 23.6587 8.11435C23.7738 8.48935 23.9368 8.77379 24.1477 8.96768C24.3587 9.15945 24.6122 9.25533 24.9084 9.25533Z" fill="white"/>
</svg>
