<svg width="20" height="20" viewBox="0 0 20 20" fill="none" xmlns="http://www.w3.org/2000/svg">
<path d="M6.66663 2.5H19.1666V13.3333H6.66663V2.5Z" fill="#5C5C5C" stroke="#5C5C5C" stroke-linecap="round" stroke-linejoin="round"/>
<path d="M6.66663 6.66666H3.33329L0.833292 9.16666V13.3333H6.66663V6.66666Z" fill="#5C5C5C" stroke="#5C5C5C" stroke-linecap="round" stroke-linejoin="round"/>
<path d="M15.4167 17.5C14.2661 17.5 13.3333 16.5673 13.3333 15.4167C13.3333 14.2661 14.2661 13.3333 15.4167 13.3333C16.5673 13.3333 17.5 14.2661 17.5 15.4167C17.5 16.5673 16.5673 17.5 15.4167 17.5Z" fill="#5C5C5C" stroke="#5C5C5C" stroke-linecap="round" stroke-linejoin="round"/>
<path d="M4.58329 17.5C3.4327 17.5 2.49996 16.5673 2.49996 15.4167C2.49996 14.2661 3.4327 13.3333 4.58329 13.3333C5.73389 13.3333 6.66663 14.2661 6.66663 15.4167C6.66663 16.5673 5.73389 17.5 4.58329 17.5Z" fill="#5C5C5C" stroke="#5C5C5C" stroke-linecap="round" stroke-linejoin="round"/>
</svg>
