<?xml version="1.0" standalone="no"?>
<!DOCTYPE svg PUBLIC "-//W3C//DTD SVG 20010904//EN"
 "http://www.w3.org/TR/2001/REC-SVG-20010904/DTD/svg10.dtd">
<svg version="1.0" xmlns="http://www.w3.org/2000/svg"
 width="400" height="400" viewBox="0 0 500.000000 500.000000"
 preserveAspectRatio="xMidYMid meet">

<g transform="translate(0.000000,500.000000) scale(0.100000,-0.100000)"
fill="#b2b2a5" stroke="none">
<path d="M2335 4620 c-529 -39 -1020 -220 -1420 -525 -109 -83 -352 -324 -422
-420 -77 -104 -147 -245 -219 -443 -143 -394 -206 -742 -206 -1142 0 -357 57
-695 189 -1120 34 -109 157 -440 202 -542 l20 -48 88 -1 c356 -3 627 29 906
108 121 34 197 70 445 212 340 194 607 298 977 381 363 82 574 105 1245 135
168 8 492 42 545 57 66 20 131 66 171 123 35 48 71 181 79 285 10 142 -19 523
-61 785 -90 572 -454 1308 -801 1622 -132 119 -419 288 -630 372 -334 132
-729 189 -1108 161z"/>
</g>
</svg>
