<svg width="18" height="18" viewBox="0 0 18 18" fill="none" xmlns="http://www.w3.org/2000/svg">
<path d="M16 4V8H12" stroke="#707070" stroke-width="1.3" stroke-linecap="round" stroke-linejoin="round"/>
<path d="M2 14V10H6" stroke="#707070" stroke-width="1.3" stroke-linecap="round" stroke-linejoin="round"/>
<path d="M3.59727 6.99947C3.92002 6.04375 4.46854 5.18927 5.19166 4.51577C5.91478 3.84227 6.78893 3.3717 7.73255 3.14797C8.67616 2.92424 9.65848 2.95464 10.5878 3.23633C11.5172 3.51803 12.3633 4.04184 13.0473 4.75889L16 7.66632M2 10.3337L4.95273 13.2411C5.63666 13.9582 6.48278 14.482 7.41215 14.7637C8.34152 15.0454 9.32384 15.0758 10.2675 14.852C11.2111 14.6283 12.0852 14.1577 12.8083 13.4842C13.5315 12.8107 14.08 11.9563 14.4027 11.0005" stroke="#707070" stroke-width="1.3" stroke-linecap="round" stroke-linejoin="round"/>
</svg>
