<?xml version="1.0" standalone="no"?>
<!DOCTYPE svg PUBLIC "-//W3C//DTD SVG 20010904//EN"
 "http://www.w3.org/TR/2001/REC-SVG-20010904/DTD/svg10.dtd">
<svg version="1.0" xmlns="http://www.w3.org/2000/svg"
 width="400" height="400" viewBox="0 0 456.000000 500.000000"
 preserveAspectRatio="xMidYMid meet">

<g transform="translate(0.000000,500.000000) scale(0.100000,-0.100000)"
fill="#11c111" stroke="none">
<path d="M3054 4799 c-57 -61 -371 -326 -504 -425 -413 -309 -692 -460 -1190
-642 -263 -96 -664 -219 -979 -298 -74 -19 -137 -37 -140 -40 -3 -3 -8 -408
-9 -899 l-4 -893 259 -5 c266 -5 393 -19 613 -67 270 -60 559 -159 771 -265
359 -181 925 -551 1493 -977 87 -65 162 -120 166 -121 9 -2 295 424 395 588
241 396 375 795 431 1280 25 212 25 612 0 795 -73 544 -268 992 -622 1425 -80
98 -276 295 -384 386 -64 54 -249 189 -259 189 -4 0 -20 -14 -37 -31z m983
-2021 c-3 -8 -6 -5 -6 6 -1 11 2 17 5 13 3 -3 4 -12 1 -19z m10 -590 c-3 -7
-5 -2 -5 12 0 14 2 19 5 13 2 -7 2 -19 0 -25z"/>
</g>
</svg>
