<?xml version="1.0" standalone="no"?>
<!DOCTYPE svg PUBLIC "-//W3C//DTD SVG 20010904//EN"
 "http://www.w3.org/TR/2001/REC-SVG-20010904/DTD/svg10.dtd">
<svg version="1.0" xmlns="http://www.w3.org/2000/svg"
 width="400" height="400" viewBox="0 0 500.000000 500.000000"
 preserveAspectRatio="xMidYMid meet">

<g transform="translate(0.000000,500.000000) scale(0.100000,-0.100000)"
fill="#075d07" stroke="none">
<path d="M2390 4324 c-180 -21 -240 -32 -355 -61 -763 -197 -1382 -816 -1568
-1568 -13 -54 -26 -132 -57 -347 -13 -84 -13 -160 -1 -229 6 -30 17 -99 26
-154 9 -55 20 -109 25 -120 5 -11 11 -33 15 -50 7 -34 49 -151 75 -210 10 -22
28 -65 41 -95 28 -66 113 -230 146 -282 12 -21 23 -42 23 -47 0 -5 7 -14 15
-21 12 -10 15 -42 15 -171 0 -87 4 -160 9 -163 5 -3 35 3 68 14 62 20 131 34
253 50 41 6 111 15 155 21 50 7 162 9 300 6 301 -8 516 -36 753 -97 182 -47
293 -40 542 31 205 58 779 84 1040 47 180 -26 244 -38 262 -48 10 -6 26 -10
36 -10 10 0 23 -5 29 -11 6 -6 19 -8 29 -5 18 5 19 17 16 146 -4 144 1 175 39
230 30 45 133 257 171 355 65 164 95 273 129 465 15 82 18 320 6 415 -28 223
-41 282 -103 475 -28 86 -24 77 -100 235 -65 136 -154 284 -199 331 -5 6 -28
36 -50 67 -59 82 -286 303 -395 383 -367 271 -756 408 -1195 418 -88 2 -176 2
-195 0z"/>
</g>
</svg>
