<svg xmlns="http://www.w3.org/2000/svg" _ngcontent-owb-c284="" id="svgContainer" class="canvas-container" enforceboundaries="false" style="pointer-events: all;" width="3483.572998046875" height="4500"><style _ngcontent-owb-c284="" type="text/css">.fil0_1_16760617_1000000{fill:#FF5B2D}.fil1_1_16760617_1000000{fill:#FEFEFE}
</style><defs _ngcontent-owb-c284=""><clipPath _ngcontent-owb-c284="" id="designRegionMask1" class="regular-mask ng-star-inserted"><rect width="253" height="210.5" rx="0" ry="0" stroke="white" stroke-width="0" /></clipPath><!----><!----><!----><!----><!----></defs><g _ngcontent-owb-c284=""><g _ngcontent-owb-c284="" /><!----><g _ngcontent-owb-c284="" class="mainGroup" style="clip-path:url('#designMask1')" transform="translate(-1615.4783935546875,15.580999374389648) scale(26.72964781927034,26.72964781927034)"><!----><g _ngcontent-owb-c284="" class="ng-star-inserted" style="pointer-events: auto;"><!----><!----><g _ngcontent-owb-c284="" ds-vector-element="" class="ng-star-inserted"><g style="null" transform="rotate(0 125.60079012729358 83.5932831880734) scale(0.216871441872379 0.2168714434576484) translate(158.28921663985778,-80.40266116800063)"><!----><g visibility="visible"><g id="surface1"><path style="fill-rule:nonzero;fill-opacity:1;" d="M 255.230469 842.492188 L 131.890625 719.296875 L 131.890625 213.3125 L 255.203125 89.214844 L 586.507813 89.214844 L 709.832031 213.074219 L 709.832031 392.753906 L 486.917969 392.753906 L 486.917969 276.910156 L 355.164063 276.910156 L 355.164063 654.296875 L 372.054688 654.296875 L 372.449219 654.675781 L 470.011719 654.675781 L 470.390625 654.296875 L 486.917969 654.296875 L 486.917969 544.214844 L 709.832031 544.214844 L 709.832031 719.15625 L 586.496094 842.492188 Z M 255.230469 842.492188 " stroke-width="1" class="fil0_1_16760617_1000000" /><path style="fill-rule:nonzero;fill-opacity:1;" d="M 591.289063 77.714844 L 250.417969 77.714844 L 243.675781 84.503906 L 127.074219 201.84375 L 120.390625 208.570313 L 120.390625 724.066406 L 127.136719 730.800781 L 243.734375 847.265625 L 250.472656 853.992188 L 591.257813 853.992188 L 597.996094 847.257813 L 714.59375 730.65625 L 721.328125 723.917969 L 721.328125 532.714844 L 475.417969 532.714844 L 475.417969 642.796875 L 465.628906 642.796875 L 465.25 643.175781 L 377.078125 643.175781 L 376.683594 642.796875 L 366.660156 642.796875 L 366.660156 288.410156 L 475.417969 288.410156 L 475.417969 404.253906 L 721.328125 404.253906 L 721.328125 208.324219 L 714.628906 201.59375 L 598.03125 84.488281 Z M 581.730469 100.714844 L 698.328125 217.820313 L 698.328125 381.253906 L 498.417969 381.253906 L 498.417969 265.410156 L 343.660156 265.410156 L 343.660156 665.796875 L 367.425781 665.796875 L 367.820313 666.175781 L 474.777344 666.175781 L 475.15625 665.796875 L 498.417969 665.796875 L 498.417969 555.714844 L 698.328125 555.714844 L 698.328125 714.394531 L 581.730469 830.992188 L 259.988281 830.992188 L 143.390625 714.53125 L 143.390625 218.054688 L 259.988281 100.714844 Z M 581.730469 100.714844 " stroke-width="1" class="fil1_1_16760617_1000000" /><path style="fill-rule:nonzero;fill-opacity:1;" d="M 585.46875 91.714844 L 256.246094 91.714844 L 253.605469 94.371094 L 137.007813 211.710938 L 134.390625 214.34375 L 134.390625 718.261719 L 137.03125 720.898438 L 253.628906 837.359375 L 256.265625 839.992188 L 585.460938 839.992188 L 588.09375 837.355469 L 704.695313 720.757813 L 707.328125 718.121094 L 707.328125 546.714844 L 489.417969 546.714844 L 489.417969 656.796875 L 471.429688 656.796875 L 471.050781 657.175781 L 371.445313 657.175781 L 371.046875 656.796875 L 352.660156 656.796875 L 352.660156 274.410156 L 489.417969 274.410156 L 489.417969 390.253906 L 707.328125 390.253906 L 707.328125 214.105469 L 704.707031 211.472656 L 588.109375 94.367188 Z M 581.730469 100.714844 L 698.328125 217.820313 L 698.328125 381.253906 L 498.417969 381.253906 L 498.417969 265.410156 L 343.660156 265.410156 L 343.660156 665.796875 L 367.425781 665.796875 L 367.820313 666.175781 L 474.777344 666.175781 L 475.15625 665.796875 L 498.417969 665.796875 L 498.417969 555.714844 L 698.328125 555.714844 L 698.328125 714.394531 L 581.730469 830.992188 L 259.988281 830.992188 L 143.390625 714.53125 L 143.390625 218.054688 L 259.988281 100.714844 Z M 581.730469 100.714844 " stroke-width="1" class="fil1_1_16760617_1000000" /><path style="fill-rule:nonzero;fill-opacity:1;" d="M 265.441406 226.859375 L 265.441406 214.40625 C 265.441406 214.347656 265.429688 213.03125 264.261719 213.03125 L 256.675781 213.03125 Z M 263.628906 265.222656 L 241.339844 230.101563 L 241.339844 246.390625 C 241.339844 247.074219 242.128906 247.378906 242.90625 247.378906 L 250.917969 247.378906 L 250.917969 265.222656 L 214.402344 265.222656 L 214.402344 247.378906 L 222.605469 247.378906 C 223.703125 247.378906 223.785156 246.328125 223.785156 246.007813 L 223.785156 214.023438 C 223.785156 213.546875 223.335938 213.03125 222.605469 213.03125 L 214.402344 213.03125 L 214.402344 195.1875 L 245.359375 195.1875 L 256.34375 212.511719 L 256.34375 195.1875 L 291.90625 195.1875 L 291.90625 213.03125 L 284.5625 213.03125 C 283.976563 213.03125 283.476563 213.484375 283.476563 214.023438 L 283.476563 265.222656 Z M 263.628906 265.222656 " stroke-width="1" class="fil1_1_16760617_1000000" /><path style="fill-rule:nonzero;fill-opacity:1;" d="M 242.839844 245.878906 L 242.839844 235.265625 L 249.578125 245.878906 L 242.90625 245.878906 C 242.882813 245.878906 242.863281 245.878906 242.839844 245.878906 M 259.402344 214.53125 L 263.945313 214.53125 L 263.945313 221.691406 Z M 293.40625 193.6875 L 254.84375 193.6875 L 254.84375 207.347656 L 247.066406 195.082031 L 246.183594 193.6875 L 212.902344 193.6875 L 212.902344 214.53125 L 222.285156 214.53125 L 222.285156 245.878906 L 212.902344 245.878906 L 212.902344 266.722656 L 252.417969 266.722656 L 252.417969 250.355469 L 261.917969 265.328125 L 262.804688 266.722656 L 284.980469 266.722656 L 284.980469 214.53125 L 293.40625 214.53125 Z M 290.40625 196.6875 L 290.40625 211.53125 L 284.566406 211.53125 C 283.128906 211.53125 281.980469 212.679688 281.980469 214.019531 L 281.980469 263.722656 L 264.453125 263.722656 L 239.839844 224.9375 L 239.839844 246.390625 C 239.839844 247.824219 241.085938 248.878906 242.90625 248.878906 L 249.417969 248.878906 L 249.417969 263.722656 L 215.902344 263.722656 L 215.902344 248.878906 L 222.605469 248.878906 C 224.328125 248.878906 225.285156 247.539063 225.285156 246.007813 L 225.285156 214.019531 C 225.285156 212.679688 224.136719 211.53125 222.605469 211.53125 L 215.902344 211.53125 L 215.902344 196.6875 L 244.535156 196.6875 L 266.945313 232.023438 L 266.945313 214.402344 C 266.945313 212.96875 265.984375 211.53125 264.261719 211.53125 L 257.84375 211.53125 L 257.84375 196.6875 L 290.40625 196.6875 " stroke-width="1" class="fil0_1_16760617_1000000" /><path style="fill-rule:nonzero;fill-opacity:1;" d="M 252.328125 310.675781 L 250.457031 305.679688 L 248.535156 310.675781 Z M 250.695313 345.660156 L 250.695313 327.820313 L 258.421875 327.820313 C 258.628906 327.820313 258.644531 327.5 258.644531 327.402344 C 258.644531 327.40625 258.644531 327.40625 258.644531 327.40625 C 258.632813 327.40625 258.605469 327.316406 258.578125 327.214844 L 258.519531 326.988281 L 258.035156 325.648438 L 242.8125 325.648438 L 242.308594 327.050781 C 242.300781 327.074219 242.300781 327.21875 242.300781 327.308594 C 242.300781 327.558594 242.507813 327.792969 242.597656 327.828125 L 250.246094 327.820313 L 250.246094 345.660156 L 215.453125 345.660156 L 215.453125 327.820313 L 221.550781 327.820313 C 222.738281 327.820313 223.214844 327.316406 223.976563 325.257813 L 242.925781 275.628906 L 262.519531 275.628906 L 281.273438 324.761719 C 282.351563 327.597656 282.996094 327.820313 283.796875 327.820313 L 290.851563 327.820313 L 290.851563 345.660156 Z M 250.695313 345.660156 " stroke-width="1" class="fil1_1_16760617_1000000" /><path style="fill-rule:nonzero;fill-opacity:1;" d="M 263.550781 274.128906 L 241.894531 274.128906 L 241.15625 276.058594 L 222.578125 324.707031 C 222.230469 325.648438 221.980469 326.171875 221.816406 326.296875 C 221.804688 326.296875 221.71875 326.316406 221.550781 326.316406 L 213.953125 326.316406 L 213.953125 347.160156 L 292.351563 347.160156 L 292.351563 326.316406 L 283.796875 326.316406 C 283.761719 326.316406 283.734375 326.316406 283.714844 326.316406 C 283.59375 326.195313 283.25 325.75 282.675781 324.230469 L 264.289063 276.058594 Z M 246.355469 312.175781 L 254.492188 312.175781 L 250.472656 301.449219 L 246.355469 312.175781 M 261.484375 277.128906 L 279.871094 325.296875 C 280.925781 328.074219 281.882813 329.316406 283.796875 329.316406 L 289.351563 329.316406 L 289.351563 344.160156 L 252.195313 344.160156 L 252.195313 329.316406 L 258.421875 329.316406 C 259.472656 329.316406 260.144531 328.457031 260.144531 327.402344 C 260.144531 327.210938 260.046875 326.925781 259.953125 326.542969 L 259.089844 324.148438 L 241.757813 324.148438 L 240.894531 326.542969 C 240.800781 326.828125 240.800781 327.117188 240.800781 327.308594 C 240.800781 328.359375 241.660156 329.316406 242.523438 329.316406 L 248.746094 329.316406 L 248.746094 344.160156 L 216.953125 344.160156 L 216.953125 329.316406 L 221.550781 329.316406 C 223.945313 329.316406 224.710938 327.59375 225.382813 325.773438 L 243.960938 277.128906 L 261.484375 277.128906 " stroke-width="1" class="fil0_1_16760617_1000000" /><path style="fill-rule:nonzero;fill-opacity:1;" d="M 232.835938 426.101563 L 232.835938 408.257813 L 240.757813 408.257813 C 241.613281 408.140625 242.03125 407.691406 242.03125 406.882813 L 242.03125 376.046875 C 242.03125 374.578125 241.605469 374.578125 241.230469 374.578125 C 237.808594 374.578125 236.699219 382.925781 236.699219 386.964844 L 236.699219 388.464844 L 219.714844 388.464844 L 219.714844 356.066406 L 286.589844 356.066406 L 286.589844 388.464844 L 269.609375 388.464844 L 269.609375 386.964844 C 269.609375 382.925781 268.5 374.578125 265.078125 374.578125 C 264.703125 374.578125 264.277344 374.578125 264.277344 376.046875 L 264.277344 407.203125 C 264.316406 407.59375 264.527344 408.203125 265.457031 408.261719 L 273.472656 408.257813 L 273.472656 426.101563 Z M 232.835938 426.101563 " stroke-width="1" class="fil1_1_16760617_1000000" /><path style="fill-rule:nonzero;fill-opacity:1;" d="M 240.476563 375.492188 Z M 265.832031 375.492188 Z M 288.089844 354.566406 L 218.214844 354.566406 L 218.214844 389.964844 L 238.199219 389.964844 L 238.199219 386.964844 C 238.199219 382.179688 239.367188 377.835938 240.53125 376.5 L 240.53125 406.757813 L 231.335938 406.757813 L 231.335938 427.601563 L 274.972656 427.601563 L 274.972656 406.757813 L 265.777344 406.757813 L 265.777344 376.511719 C 266.945313 377.859375 268.109375 382.195313 268.109375 386.964844 L 268.109375 389.964844 L 288.089844 389.964844 Z M 285.089844 357.566406 L 285.089844 386.964844 L 271.109375 386.964844 C 271.109375 383.804688 270.34375 373.078125 265.078125 373.078125 C 264.023438 373.078125 262.777344 373.558594 262.777344 376.046875 L 262.777344 407.265625 C 262.875 408.609375 263.832031 409.660156 265.363281 409.757813 L 271.972656 409.757813 L 271.972656 424.601563 L 234.335938 424.601563 L 234.335938 409.757813 L 240.847656 409.757813 C 242.574219 409.566406 243.53125 408.417969 243.53125 406.882813 L 243.53125 376.046875 C 243.53125 373.558594 242.285156 373.078125 241.230469 373.078125 C 235.964844 373.078125 235.199219 383.804688 235.199219 386.964844 L 221.214844 386.964844 L 221.214844 357.566406 L 285.089844 357.566406 " stroke-width="1" class="fil0_1_16760617_1000000" /><path style="fill-rule:nonzero;fill-opacity:1;" d="M 253.34375 462.457031 C 257.082031 462.457031 259.316406 460.941406 259.316406 458.402344 C 259.316406 455.863281 257.082031 454.347656 253.34375 454.347656 L 247.503906 454.347656 C 246.757813 454.347656 246.417969 454.859375 246.417969 455.335938 L 246.417969 462.457031 Z M 274.507813 507.019531 C 270.414063 507.019531 265.707031 506.5 261.863281 502.652344 C 258.464844 499.3125 257.855469 495.015625 257.3125 491.226563 C 256.859375 488.035156 256.425781 485.019531 254.5 482.738281 C 253.320313 481.300781 249.726563 480.601563 246.417969 480.503906 L 246.417969 487.324219 C 246.417969 488.195313 246.988281 488.695313 247.984375 488.695313 L 255.613281 488.695313 L 255.613281 506.539063 L 214.976563 506.539063 L 214.976563 488.695313 L 222.988281 488.695313 C 224.085938 488.695313 224.167969 487.644531 224.167969 487.324219 L 224.167969 455.335938 C 224.167969 454.859375 223.71875 454.347656 222.988281 454.347656 L 214.976563 454.347656 L 214.976563 436.503906 L 259.285156 436.503906 C 262.769531 436.503906 269.464844 436.996094 275.152344 440.285156 C 280.976563 443.652344 284.054688 449.089844 284.054688 456.007813 C 284.054688 463.574219 279.960938 469.042969 272.417969 471.734375 C 273.714844 472.390625 274.921875 473.125 276.058594 473.945313 C 279.632813 476.820313 281.566406 481.113281 281.566406 486.078125 C 281.566406 486.695313 281.628906 487.164063 281.707031 487.46875 C 282.109375 486.625 282.109375 484.320313 282.109375 483.492188 L 282.109375 481.992188 L 291.332031 481.992188 L 291.332031 489.8125 C 291.332031 500.585938 285.042969 507.019531 274.507813 507.019531 " stroke-width="1" class="fil1_1_16760617_1000000" /><path style="fill-rule:nonzero;fill-opacity:1;" d="M 247.921875 487.195313 L 247.917969 482.09375 C 250.714844 482.351563 252.800781 483.03125 253.324219 483.671875 C 254.175781 484.679688 254.695313 485.867188 255.058594 487.195313 L 247.984375 487.195313 C 247.960938 487.195313 247.941406 487.195313 247.921875 487.195313 M 247.917969 455.847656 L 253.34375 455.847656 C 254.691406 455.847656 257.816406 456.097656 257.816406 458.402344 C 257.816406 460.707031 254.691406 460.957031 253.34375 460.957031 L 247.917969 460.957031 Z M 259.28125 435.003906 L 213.476563 435.003906 L 213.476563 455.847656 L 222.667969 455.847656 L 222.667969 487.195313 L 213.476563 487.195313 L 213.476563 508.039063 L 257.113281 508.039063 L 257.113281 497.660156 C 257.816406 499.785156 258.921875 501.867188 260.820313 503.730469 C 265.035156 507.949219 270.109375 508.519531 274.507813 508.519531 C 285.984375 508.519531 292.832031 501.527344 292.832031 489.8125 L 292.832031 480.492188 L 282.238281 480.492188 C 281.289063 477.441406 279.527344 474.808594 277.0625 472.824219 L 277 472.777344 L 276.9375 472.726563 C 276.546875 472.449219 276.152344 472.175781 275.75 471.917969 C 282.0625 468.691406 285.554688 463.152344 285.554688 456.007813 C 285.554688 440.503906 271.402344 435.003906 259.28125 435.003906 M 244.917969 463.957031 L 253.34375 463.957031 C 258.707031 463.957031 260.816406 461.179688 260.816406 458.402344 C 260.816406 455.625 258.707031 452.847656 253.34375 452.847656 L 247.503906 452.847656 C 245.972656 452.847656 244.917969 453.996094 244.917969 455.335938 L 244.917969 463.957031 M 259.28125 438.003906 C 268.570313 438.003906 282.554688 441.546875 282.554688 456.007813 C 282.554688 465.390625 275.753906 469.894531 267.808594 471.425781 C 271.15625 472.574219 273.457031 473.914063 275.179688 475.160156 C 278.628906 477.9375 280.066406 482.054688 280.066406 486.078125 C 280.066406 486.84375 280.160156 489.238281 281.5 489.238281 C 283.609375 489.238281 283.609375 485.886719 283.609375 483.492188 L 289.832031 483.492188 L 289.832031 489.8125 C 289.832031 499.484375 284.566406 505.519531 274.507813 505.519531 C 270.296875 505.519531 266.273438 504.945313 262.921875 501.589844 C 257.175781 495.941406 260.335938 487.324219 255.644531 481.769531 C 253.441406 479.085938 246.738281 478.992188 245.589844 478.992188 L 244.917969 478.992188 L 244.917969 487.324219 C 244.917969 488.949219 246.066406 490.195313 247.984375 490.195313 L 254.113281 490.195313 L 254.113281 505.039063 L 216.476563 505.039063 L 216.476563 490.195313 L 222.988281 490.195313 C 224.710938 490.195313 225.667969 488.855469 225.667969 487.324219 L 225.667969 455.335938 C 225.667969 453.996094 224.519531 452.847656 222.988281 452.847656 L 216.476563 452.847656 L 216.476563 438.003906 L 259.28125 438.003906 " stroke-width="1" class="fil0_1_16760617_1000000" /><path style="fill-rule:nonzero;fill-opacity:1;" d="M 253.152344 534.308594 C 245.964844 534.308594 243.164063 539.257813 243.164063 551.960938 C 243.164063 564.664063 245.964844 569.613281 253.152344 569.613281 C 260.15625 569.613281 263.144531 564.332031 263.144531 551.960938 C 263.144531 539.585938 260.15625 534.308594 253.152344 534.308594 M 253.152344 587.363281 C 230.226563 587.363281 218.230469 569.554688 218.230469 551.960938 C 218.230469 534.367188 230.226563 516.558594 253.152344 516.558594 C 276.082031 516.558594 288.074219 534.367188 288.074219 551.960938 C 288.074219 569.554688 276.082031 587.363281 253.152344 587.363281 " stroke-width="1" class="fil1_1_16760617_1000000" /><path style="fill-rule:nonzero;fill-opacity:1;" d="M 253.152344 568.113281 C 246.050781 568.113281 244.664063 562.191406 244.664063 551.960938 C 244.664063 538.449219 247.773438 535.808594 253.152344 535.808594 C 259.183594 535.808594 261.644531 540.488281 261.644531 551.960938 C 261.644531 563.433594 259.183594 568.113281 253.152344 568.113281 M 253.152344 515.058594 C 242.214844 515.058594 232.886719 518.992188 226.171875 526.429688 C 220.085938 533.171875 216.730469 542.238281 216.730469 551.960938 C 216.730469 570.296875 229.242188 588.863281 253.152344 588.863281 C 264.089844 588.863281 273.421875 584.929688 280.132813 577.492188 C 286.222656 570.75 289.574219 561.683594 289.574219 551.960938 C 289.574219 533.625 277.0625 515.058594 253.152344 515.058594 M 253.152344 571.113281 C 263.113281 571.113281 264.644531 561.25 264.644531 551.960938 C 264.644531 542.671875 263.113281 532.808594 253.152344 532.808594 C 243.195313 532.808594 241.664063 541.617188 241.664063 551.960938 C 241.664063 562.304688 243.195313 571.113281 253.152344 571.113281 M 253.152344 518.058594 C 274.605469 518.058594 286.574219 534.433594 286.574219 551.960938 C 286.574219 569.484375 274.605469 585.863281 253.152344 585.863281 C 231.703125 585.863281 219.730469 569.484375 219.730469 551.960938 C 219.730469 534.433594 231.703125 518.058594 253.152344 518.058594 " stroke-width="1" class="fil0_1_16760617_1000000" /><path style="fill-rule:nonzero;fill-opacity:1;" d="M 265.441406 629.054688 L 265.441406 616.597656 C 265.441406 616.542969 265.429688 615.226563 264.261719 615.226563 L 256.675781 615.226563 Z M 263.628906 667.417969 L 241.339844 632.296875 L 241.339844 648.585938 C 241.339844 649.269531 242.128906 649.574219 242.90625 649.574219 L 250.917969 649.574219 L 250.917969 667.417969 L 214.402344 667.417969 L 214.402344 649.574219 L 222.605469 649.574219 C 223.703125 649.574219 223.785156 648.523438 223.785156 648.199219 L 223.785156 616.214844 C 223.785156 615.738281 223.335938 615.226563 222.605469 615.226563 L 214.402344 615.226563 L 214.402344 597.382813 L 245.359375 597.382813 L 256.34375 614.707031 L 256.34375 597.382813 L 291.90625 597.382813 L 291.90625 615.226563 L 284.5625 615.226563 C 283.976563 615.226563 283.476563 615.679688 283.476563 616.214844 L 283.476563 667.417969 Z M 263.628906 667.417969 " stroke-width="1" class="fil1_1_16760617_1000000" /><path style="fill-rule:nonzero;fill-opacity:1;" d="M 242.839844 648.074219 L 242.839844 637.460938 L 249.578125 648.074219 L 242.90625 648.074219 C 242.882813 648.074219 242.863281 648.074219 242.839844 648.074219 M 259.402344 616.726563 L 263.945313 616.726563 L 263.945313 623.886719 Z M 293.40625 595.882813 L 254.84375 595.882813 L 254.84375 609.539063 L 247.066406 597.277344 L 246.183594 595.882813 L 212.902344 595.882813 L 212.902344 616.726563 L 222.285156 616.726563 L 222.285156 648.074219 L 212.902344 648.074219 L 212.902344 668.917969 L 252.417969 668.917969 L 252.417969 652.550781 L 261.917969 667.523438 L 262.804688 668.917969 L 284.980469 668.917969 L 284.980469 616.726563 L 293.40625 616.726563 Z M 290.40625 598.882813 L 290.40625 613.726563 L 284.566406 613.726563 C 283.128906 613.726563 281.980469 614.875 281.980469 616.214844 L 281.980469 665.917969 L 264.453125 665.917969 L 239.839844 627.132813 L 239.839844 648.585938 C 239.839844 650.019531 241.085938 651.074219 242.90625 651.074219 L 249.417969 651.074219 L 249.417969 665.917969 L 215.902344 665.917969 L 215.902344 651.074219 L 222.605469 651.074219 C 224.328125 651.074219 225.285156 649.734375 225.285156 648.199219 L 225.285156 616.214844 C 225.285156 614.875 224.136719 613.726563 222.605469 613.726563 L 215.902344 613.726563 L 215.902344 598.882813 L 244.535156 598.882813 L 266.945313 634.21875 L 266.945313 616.597656 C 266.945313 615.160156 265.984375 613.726563 264.261719 613.726563 L 257.84375 613.726563 L 257.84375 598.882813 L 290.40625 598.882813 " stroke-width="1" class="fil0_1_16760617_1000000" /><path style="fill-rule:nonzero;fill-opacity:1;" d="M 252.328125 712.871094 L 250.457031 707.875 L 248.535156 712.871094 Z M 250.695313 747.855469 L 250.695313 730.015625 L 258.421875 730.015625 C 258.628906 730.015625 258.644531 729.695313 258.644531 729.597656 C 258.644531 729.601563 258.644531 729.601563 258.644531 729.601563 C 258.632813 729.601563 258.605469 729.515625 258.578125 729.414063 L 258.519531 729.183594 L 258.035156 727.84375 L 242.8125 727.84375 L 242.308594 729.246094 C 242.300781 729.265625 242.300781 729.414063 242.300781 729.503906 C 242.300781 729.753906 242.507813 729.988281 242.597656 730.023438 L 250.246094 730.015625 L 250.246094 747.855469 L 215.453125 747.855469 L 215.453125 730.015625 L 221.550781 730.015625 C 222.742188 730.015625 223.214844 729.511719 223.976563 727.453125 L 242.925781 677.820313 L 262.519531 677.820313 L 281.273438 726.957031 C 282.347656 729.792969 282.996094 730.015625 283.796875 730.015625 L 290.851563 730.015625 L 290.851563 747.855469 Z M 250.695313 747.855469 " stroke-width="1" class="fil1_1_16760617_1000000" /><path style="fill-rule:nonzero;fill-opacity:1;" d="M 263.550781 676.320313 L 241.894531 676.320313 L 241.15625 678.25 L 222.578125 726.898438 C 222.230469 727.84375 221.980469 728.367188 221.816406 728.492188 C 221.808594 728.492188 221.71875 728.511719 221.550781 728.511719 L 213.953125 728.511719 L 213.953125 749.355469 L 292.351563 749.355469 L 292.351563 728.511719 L 283.796875 728.511719 C 283.761719 728.511719 283.734375 728.511719 283.714844 728.511719 C 283.59375 728.390625 283.25 727.941406 282.675781 726.429688 L 264.289063 678.25 Z M 246.355469 714.371094 L 254.492188 714.371094 L 250.472656 703.644531 L 246.355469 714.371094 M 261.484375 679.320313 L 279.871094 727.492188 C 280.925781 730.269531 281.882813 731.511719 283.796875 731.511719 L 289.351563 731.511719 L 289.351563 746.355469 L 252.195313 746.355469 L 252.195313 731.511719 L 258.421875 731.511719 C 259.472656 731.511719 260.144531 730.652344 260.144531 729.597656 C 260.144531 729.40625 260.046875 729.121094 259.953125 728.734375 L 259.089844 726.34375 L 241.757813 726.34375 L 240.894531 728.734375 C 240.800781 729.023438 240.800781 729.3125 240.800781 729.503906 C 240.800781 730.554688 241.660156 731.511719 242.523438 731.511719 L 248.746094 731.511719 L 248.746094 746.355469 L 216.953125 746.355469 L 216.953125 731.511719 L 221.550781 731.511719 C 223.945313 731.511719 224.710938 729.789063 225.382813 727.96875 L 243.960938 679.320313 L 261.484375 679.320313 " stroke-width="1" class="fil0_1_16760617_1000000" /></g></g></g></g><!----></g><!----><!----></g></g><!----></svg>