<svg width="28" height="28" viewBox="0 0 28 28" fill="none" xmlns="http://www.w3.org/2000/svg">
<path d="M23.0528 10.5H12.7823C11.5218 10.5 10.5 11.5332 10.5 12.8077V23.1923C10.5 24.4668 11.5218 25.5 12.7823 25.5H23.0528C24.3133 25.5 25.3352 24.4668 25.3352 23.1923V12.8077C25.3352 11.5332 24.3133 10.5 23.0528 10.5Z" stroke="black" stroke-width="1.5" stroke-linecap="round" stroke-linejoin="round"/>
<path d="M6.33333 19.1667C5.71449 19.1667 5.121 18.9208 4.68342 18.4832C4.24583 18.0457 4 17.4522 4 16.8333V6.33333C4 5.71449 4.24583 5.121 4.68342 4.68342C5.121 4.24583 5.71449 4 6.33333 4H16.8333C17.4522 4 18.0457 4.24583 18.4832 4.68342C18.9208 5.121 19.1667 5.71449 19.1667 6.33333" stroke="black" stroke-width="1.5" stroke-linecap="round" stroke-linejoin="round"/>
</svg>
