<svg width="400" height="400" viewBox="0 0 356 298" fill="none" xmlns="http://www.w3.org/2000/svg">
<path d="M173.631 0.0018998C161.619 0.0625032 149.71 1.15887 137.905 3.45445C125.28 5.90797 113.051 9.65803 101.238 14.7744C86.5414 21.1396 72.966 29.4019 60.5228 39.5612C54.651 44.3562 49.0918 49.4983 43.9142 55.0444C34.4622 65.1707 26.2934 76.2593 19.5274 88.402C14.7878 96.9085 10.8551 105.775 7.72388 115C4.75616 123.747 2.63354 132.707 1.35052 141.871C0.247406 149.753 -0.194214 157.67 0.0783691 165.618C0.283722 171.625 0.87616 177.606 1.77029 183.553C3.56219 195.472 6.45898 207.118 10.0918 218.591C13.7792 230.234 18.2026 241.585 23.1039 252.755C26.4751 260.435 30.0552 268.014 33.8571 275.484C36.3486 280.382 38.9438 285.225 41.4935 290.094C41.5789 290.255 41.6752 290.411 41.7679 290.569C42.4549 291.735 42.4494 291.721 43.6307 291.129C48.1358 288.872 52.9336 287.478 57.8004 286.307C64.0356 284.805 70.3545 283.78 76.7188 283.058C80.5497 282.623 84.3952 282.322 88.2498 282.107C97.0493 281.618 105.856 281.637 114.663 281.637C151.177 281.64 187.69 281.616 224.204 281.653C234.161 281.664 244.055 282.54 253.859 284.369C261.552 285.804 269.132 287.673 276.538 290.228C282.219 292.189 287.762 294.483 292.966 297.546C294.099 298.213 294.197 298.174 295.027 297.237C297.633 294.301 300.283 291.405 302.822 288.404C307.961 282.329 312.815 276.035 317.417 269.538C322.736 262.029 327.643 254.253 332.137 246.215C339.443 233.148 345.564 219.549 349.961 205.192C352.329 197.46 354.11 189.589 355.106 181.555C355.79 176.042 356.148 170.497 355.942 164.938C355.481 152.408 353.594 140.109 350.029 128.082C346.44 115.975 341.436 104.499 335.145 93.5808C329.711 84.1524 323.41 75.3521 316.385 67.0788C312.003 61.9183 307.32 57.0425 302.402 52.4109C294.38 44.8576 285.777 38.0296 276.607 31.9509C263.833 23.4848 250.285 16.5705 235.92 11.2888C224.275 7.00801 212.333 3.90255 200.088 2.01283C195.648 1.32783 191.181 0.831982 186.696 0.514274C182.347 0.205747 177.999 -0.032993 173.637 0.00373627L173.631 0.0018998Z" fill="url(#paint0_linear_1366_43)"/>
<defs>
<linearGradient id="paint0_linear_1366_43" x1="178" y1="0" x2="178" y2="298" gradientUnits="userSpaceOnUse">
<stop stop-color="#850f85"/>
<stop offset="1" stop-color="#850f85"/>
</linearGradient>
</defs>
</svg>
